HIERARCHY
ROOT pelvis
{
  OFFSET 0 100 0
  CHANNELS 6 Xposition Yposition Zposition Zrotation Xrotation Yrotation
  JOINT pelvis_right_femur
  {
    OFFSET -10.78128 -3.44521 -0.5502486
    CHANNELS 3 Zrotation Xrotation Yrotation
    JOINT right_femur_tibia
    {
      OFFSET -0.8047443 -44.0398 -0.1307829
      CHANNELS 3 Zrotation Xrotation Yrotation
      JOINT right_tibia_foot
      {
        OFFSET 3.006224 -47.83518 -5
        CHANNELS 3 Zrotation Xrotation Yrotation
        End Site
        {
          OFFSET 0 -5 15
        }
      }
    }
  }
  JOINT pelvis_left_femur
  {
    OFFSET 10.78128 -3.44521 -0.5502486
    CHANNELS 3 Zrotation Xrotation Yrotation
    JOINT left_femur_tibia
    {
      OFFSET 0.8047443 -44.0398 -0.1307829
      CHANNELS 3 Zrotation Xrotation Yrotation
      JOINT left_tibia_foot
      {
        OFFSET -4.370144 -48.10324 -4.275266
        CHANNELS 3 Zrotation Xrotation Yrotation
        End Site
        {
          OFFSET 0 -5 15
        }
      }
    }
  }
  JOINT pelvis_spine1
  {
    OFFSET 0 6.468898 -3.129235
    CHANNELS 3 Zrotation Xrotation Yrotation
    JOINT spine1
    {
      OFFSET 0 23.15396 4.99043
      CHANNELS 3 Zrotation Xrotation Yrotation
      JOINT spine2
      {
        OFFSET 0 20.79997 -5.064912
        CHANNELS 3 Zrotation Xrotation Yrotation
        JOINT neck
        {
          OFFSET 0 14.38658 9.616178
          CHANNELS 3 Zrotation Xrotation Yrotation
          End Site
          {
            OFFSET 0 20 0
          }
        }
      }
      JOINT right_manubrium
      {
        OFFSET -5.722621 16.35077 3.967754
        CHANNELS 3 Zrotation Xrotation Yrotation
        JOINT right_clavicle
        {
          OFFSET -13.16364 1.694482 -4.693211
          CHANNELS 3 Zrotation Xrotation Yrotation
          JOINT right_humerus
          {
            OFFSET -28.5034 -0.3100689 -2.792744
            CHANNELS 3 Zrotation Xrotation Yrotation
            JOINT right_radius
            {
              OFFSET -25.15693 0.02248979 -1.271978
              CHANNELS 3 Zrotation Xrotation Yrotation
              End Site
              {
                OFFSET -15 0 0
              }
            }
          }
        }
      }
      JOINT left_manubrium
      {
        OFFSET 5.722621 16.35077 3.967754
        CHANNELS 3 Zrotation Xrotation Yrotation
        JOINT left_clavicle
        {
          OFFSET 13.16364 1.694482 -4.693211
          CHANNELS 3 Zrotation Xrotation Yrotation
          JOINT left_humerus
          {
            OFFSET 29.39168 -1.063119 -2.237045
            CHANNELS 3 Zrotation Xrotation Yrotation
            JOINT left_radius
            {
              OFFSET 24.59957 -0.9528479 0.9047498
              CHANNELS 3 Zrotation Xrotation Yrotation
              End Site
              {
                OFFSET 15 -0 -0
              }
            }
          }
        }
      }
    }
  }
}
MOTION
Frames: 17
Frame Time: 0.0416666666667
0 103.5113 0 1.68247 -1.771114 0.1079016 2.748997 -12.97813 8.773252 -0 40.11189 -0 -6.513408 -15.04576 -5.537958 -6.950033 13.22619 -24.37051 -0 5.767181 -0 -0.004926031 -20.43799 24.65969 -4.181707 -3.805437 3.806588 1.617499 8.130913 -8.184359 0.4064581 23.29959 8.120614 4.735152 -22.13905 7.788599 7.457805 -18.71321 11.21074 87.50254 38.83751 -23.36609 -0 0 14.78996 -7.854855 8.403723 4.178475 4.351772 -19.84493 -3.478577 -100.5027 42.64323 28.29619 0 0 -21.37183 -12.62386 15.97621 28.96209
0.04807829 103.452 1.22952 1.618075 -1.828337 0.1721841 2.743512 -13.20036 8.679969 -0 40.18305 -0 -6.525278 -14.73361 -5.458464 -6.901251 13.19275 -24.23029 -0 5.505666 -0 0.1548394 -20.43979 24.57441 -4.134563 -3.747543 3.759193 1.645702 8.219952 -8.164254 0.4445283 23.26561 8.064377 4.638119 -22.23269 7.845698 7.328877 -18.79005 11.2472 87.50835 38.47644 -23.17566 -0 0 14.78338 -8.048814 8.432675 4.373617 4.359073 -19.83706 -3.46309 -100.0944 42.14323 27.97255 0 0 -21.29095 -12.12156 16.07214 28.3925
0.2044055 103.0576 3.238503 0.4988147 -1.030193 0.3105805 3.402364 -19.55263 6.25808 -0 35.12698 -0 -6.470015 -10.10768 -4.13114 -5.925767 12.88442 -21.39186 -0 5.119034 -0 -1.218688 -21.31706 20.61489 -3.164447 -2.431579 3.183403 2.059622 8.635387 -8.47984 0.311155 22.35494 8.363204 4.668435 -23.17395 7.916996 6.641854 -18.79891 11.55028 87.45083 36.42682 -22.56534 -0 0 14.53373 -10.79218 9.475509 6.300385 5.014161 -20.70019 -3.714393 -96.32132 37.91431 24.71759 0 0 -22.47805 -8.522484 15.65814 24.50953
0.3780233 102.409 5.763034 -0.1682095 -0.3793431 0.5249689 3.841141 -23.70007 4.8278 -0 30.47285 -0 -6.495919 -7.910259 -3.476023 -5.296752 13.20777 -19.83736 -0 5.660144 -0 -2.382286 -22.05992 18.13532 -2.595925 -1.629557 2.799726 2.382182 8.559138 -8.642843 0.3417644 21.91164 8.456523 4.635997 -23.75777 8.055526 6.121973 -18.52365 11.57866 87.50038 35.16305 -22.41812 -0 0 14.0956 -11.90914 9.891956 7.062678 5.445729 -21.11479 -3.723401 -94.47537 35.74038 22.79355 0 0 -23.25021 -6.554028 15.49841 22.29858
0.5729682 101.4288 8.976409 -0.7810549 0.4458356 0.8402055 3.979843 -28.65296 2.791284 -0 24.22721 -0 -6.754567 -4.495463 -2.556024 -4.710627 13.78091 -17.76891 -0 6.043146 -0 -3.750129 -23.17547 15.16427 -2.086631 -0.7662701 2.384827 2.689662 8.539427 -8.84566 0.3541307 21.35775 8.635698 4.727182 -24.38752 8.149798 5.480198 -18.13114 11.61825 87.84667 33.89805 -22.56908 -0 0 13.18429 -13.58077 10.49093 8.045599 6.063613 -21.9525 -3.800888 -92.0684 33.00428 20.16939 0 0 -24.87756 -4.133857 15.22161 19.46581
0.8009281 99.99963 12.98366 -1.146922 1.124808 1.289904 3.447516 -33.46565 0.08081111 -0 17.27833 -0 -7.348319 0.05083259 -1.391467 -4.366082 14.67304 -15.29175 -0 5.537014 -0 -4.731357 -24.62296 12.33118 -1.794953 -0.05282062 1.998421 2.897228 8.722825 -9.006108 0.3850826 20.82342 8.794144 4.836416 -24.90513 8.194644 4.582877 -17.7676 11.68369 88.63801 32.36238 -22.94108 -0 0 11.70017 -15.86605 11.09638 9.24475 6.840764 -23.25194 -3.970399 -89.16413 29.4401 16.84623 0 0 -27.35412 -1.004925 14.91609 15.58561
1.071986 97.99617 17.91424 -1.149599 1.643918 1.907701 2.025428 -37.87806 -3.515942 -0 9.170675 -0 -8.314242 5.576758 -0.02199072 -4.405262 16.14011 -12.40746 -0 3.991221 -0 -5.359138 -26.58491 9.743026 -1.79185 0.4141627 1.685585 2.966563 9.026271 -9.084877 0.4640041 20.38148 8.907048 4.939478 -25.20677 8.205571 3.310743 -17.37357 11.70582 90.01857 30.44651 -23.67974 -0 0 9.47191 -18.66635 11.5819 10.49518 7.804144 -25.07315 -4.223296 -85.9845 25.14542 12.81428 0 0 -30.92404 2.64661 14.4795 10.79256
1.404717 95.36658 23.79083 -0.6401305 1.855807 2.717391 -0.1061427 -40.61494 -7.444186 -0 1.09763 -0 -9.4689 11.04789 1.222758 -5.048905 18.2506 -9.544274 -0 1.338152 -0 -5.338957 -28.85074 8.10212 -2.137888 0.3760737 1.562207 2.829449 9.347872 -8.98275 0.6306376 20.19136 8.88376 4.908111 -25.14811 8.237256 1.621557 -17.02172 11.60671 92.01066 28.07329 -24.75949 -0 0 6.654367 -21.37535 11.65514 11.38898 8.786729 -27.1576 -4.503591 -83.13263 20.78142 8.608085 0 0 -35.22737 6.168747 13.88877 5.840393
1.84108 92.33848 30.41226 0.2182218 1.74571 3.72345 -1.535236 -40.19034 -9.67656 0 -3.681073 0 -10.17516 14.32633 1.564035 -6.205324 20.48458 -7.579737 0 -1.342203 0 -4.543355 -30.28564 8.091115 -2.571599 -0.3577904 1.73707 2.503346 9.507474 -8.652988 0.8567054 20.31524 8.665884 4.57109 -24.78145 8.377114 -0.1881198 -16.90249 11.35054 94.20878 25.52799 -25.87112 -0 0 4.157338 -22.72451 11.02215 11.39276 9.299803 -28.68741 -4.711748 -81.4765 17.90011 5.685783 0 0 -38.76862 8.188816 13.17014 2.672086
2.423275 89.68086 37.25867 0.4326394 1.809669 4.821021 -0.03680312 -36.47708 -7.413279 0 -0.4304508 0 -9.728106 12.61291 0.3096814 -6.832165 21.04 -7.811845 -0 0.1580201 -0 -3.902839 -28.29861 9.138895 -2.217285 -1.404168 2.176492 2.298239 9.303364 -8.30948 0.9306975 20.40898 8.407598 3.957518 -24.7982 8.662822 -0.9278305 -17.1887 11.12934 95.28445 24.41493 -26.32802 -0 0 3.893892 -21.02692 9.855522 10.39378 8.554687 -28.18385 -4.610531 -82.1252 18.51552 6.813836 0 0 -38.47981 7.186036 12.24967 4.034267
3.092827 88.21228 43.78823 -0.7853258 2.390844 5.727403 3.755498 -31.60524 -1.973719 -0 8.89877 -0 -8.953751 6.221754 -1.416738 -5.950078 18.21014 -9.90117 -0 10.52288 -0 -4.804543 -21.90332 9.375108 -0.7278295 -1.701636 2.611961 2.574281 8.848916 -8.324654 0.6392394 20.15047 8.368456 3.558098 -25.67257 8.795375 0.5235681 -17.39398 11.30729 94.08217 26.66675 -25.75876 -0 0 6.016373 -16.84569 9.250522 9.244664 6.6856 -25.52877 -4.024957 -85.13548 21.74968 12.1016 0 0 -33.46241 4.564475 11.08503 8.649338
3.709446 87.81095 49.91218 -1.966911 2.281997 6.13665 6.430446 -26.8203 1.82856 -0 14.63457 -0 -8.925716 -0.6472315 -2.446099 -4.658277 13.74438 -11.37394 -0 26.37971 -0 -6.26249 -15.07405 9.28978 0.4065074 -1.054566 2.848371 2.995947 8.447073 -8.455183 0.3630436 20.31817 8.216879 3.530141 -25.96196 8.475132 2.749575 -16.63879 11.61893 91.83783 30.45935 -24.59667 -0 0 7.290605 -13.37408 9.624312 8.299862 5.145566 -22.95993 -3.364694 -87.75645 24.43347 15.83152 0 0 -27.76595 3.5217 10.70551 11.06776
4.202325 88.05847 55.81992 -2.153457 1.072904 5.978212 7.262495 -22.02959 3.25671 -0 15.73714 -0 -9.121396 -5.404406 -3.172731 -3.859834 9.720624 -11.55392 -0 40.7727 -0 -7.265671 -10.46735 9.877952 0.6196849 -0.224323 3.068509 3.11544 8.254588 -8.289535 0.4278117 21.08249 7.734205 3.526776 -25.04244 7.967591 4.151799 -15.43014 11.6886 90.06468 33.02134 -23.26014 -0 0 7.103116 -11.87432 10.24018 7.555697 4.364221 -21.4296 -2.97597 -88.65422 25.85356 16.29173 0 0 -23.88382 3.681374 11.01215 11.07693
4.574032 88.80008 61.61796 -1.898641 -0.3194202 5.46045 7.364578 -17.33884 3.756718 -0 15.61972 -0 -9.132807 -8.101361 -3.592154 -3.380743 5.747423 -11.10555 -0 51.69435 -0 -7.933864 -7.41963 10.74015 0.5156275 0.4314869 3.480659 2.966693 8.320551 -7.881364 0.6456315 21.81342 7.221282 3.49061 -23.89784 7.556036 4.879004 -14.65141 11.69955 88.78067 34.48785 -21.8437 -0 0 6.904655 -11.78857 10.96755 7.30346 3.895714 -20.52688 -2.748685 -88.94454 26.42949 16.143 0 0 -21.49994 3.793991 11.27728 10.88207
4.853426 89.86188 67.29739 -1.510547 -1.467407 4.761279 7.14671 -12.61099 3.808668 -0 15.03511 -0 -9.010679 -9.571835 -3.579172 -3.001197 1.113031 -10.32396 -0 59.00584 -0 -8.274889 -5.406919 11.63529 0.3070871 0.9265183 4.11305 2.660137 8.580853 -7.341784 0.8517114 22.32578 6.820262 3.444254 -23.02459 7.266167 5.227575 -14.53246 11.79526 87.63598 35.49536 -20.22114 -0 0 7.240037 -12.66931 11.85222 7.632155 3.544012 -19.96849 -2.587587 -89.21939 26.47084 16.51616 0 0 -20.04484 3.696343 11.45039 10.95145
5.088433 90.9911 72.80962 -1.054448 -2.236671 4.01326 6.678276 -7.637978 3.511163 -0 13.82732 -0 -8.741021 -10.49573 -3.135764 -2.564162 -4.569747 -9.251432 -0 62.07802 -0 -8.171523 -4.30532 12.58166 -0.007861158 1.29208 4.937387 2.249918 8.956645 -6.735618 0.9630942 22.5991 6.559038 3.383531 -22.51207 7.052544 5.332111 -15.10718 12.00593 86.32277 36.3889 -18.17646 -0 0 8.303931 -14.36509 12.88987 8.606717 3.304102 -19.61632 -2.435813 -89.59298 26.11613 17.59324 0 0 -19.18842 3.485121 11.54568 11.19185
5.346885 91.87042 78.13104 -0.5598046 -2.588657 3.320148 6.007537 -2.3961 2.939092 -0 11.88454 -0 -8.196732 -11.34924 -2.35033 -1.923342 -11.14556 -7.895401 -0 59.94132 -0 -7.558882 -4.085549 13.66403 -0.4242211 1.496722 5.872455 1.770083 9.364042 -6.114934 0.9435234 22.62854 6.430283 3.285029 -22.28174 6.876192 5.227271 -16.34872 12.29112 84.66101 37.17485 -15.56732 -0 0 10.19635 -16.78211 13.96391 10.25024 3.238743 -19.37742 -2.255964 -90.02513 25.42766 19.2485 0 0 -18.74582 3.219645 11.50801 11.48382
